<mxfile host="app.diagrams.net" agent="Mozilla/5.0 (Windows NT 10.0; Win64; x64) AppleWebKit/537.36 (KHTML, like Gecko) Chrome/132.0.0.0 Safari/537.36" version="26.0.11">
  <diagram name="Page-1" id="3RvWhHDmWNsxrk2VX_Ex">
    <mxGraphModel dx="1050" dy="522" grid="1" gridSize="10" guides="1" tooltips="1" connect="1" arrows="1" fold="1" page="1" pageScale="1" pageWidth="850" pageHeight="1100" math="0" shadow="0">
      <root>
        <mxCell id="0" />
        <mxCell id="1" parent="0" />
        <mxCell id="VEXL8dhw8h9_8BypqZwF-1" value="Activate Pay Per Post Addon" style="whiteSpace=wrap;strokeWidth=2;" vertex="1" parent="1">
          <mxGeometry x="433" y="20" width="260" height="54" as="geometry" />
        </mxCell>
        <mxCell id="VEXL8dhw8h9_8BypqZwF-2" value="Display &#39;Manage Paid Post&#39; Left Menu" style="whiteSpace=wrap;strokeWidth=2;" vertex="1" parent="1">
          <mxGeometry x="433" y="124" width="260" height="78" as="geometry" />
        </mxCell>
        <mxCell id="VEXL8dhw8h9_8BypqZwF-3" value="Click &#39;Manage Paid Post&#39; - Display Paid Post List" style="whiteSpace=wrap;strokeWidth=2;" vertex="1" parent="1">
          <mxGeometry x="433" y="252" width="260" height="78" as="geometry" />
        </mxCell>
        <mxCell id="VEXL8dhw8h9_8BypqZwF-4" value="Click &#39;Add Paid Post&#39;" style="whiteSpace=wrap;strokeWidth=2;" vertex="1" parent="1">
          <mxGeometry x="462" y="380" width="201" height="54" as="geometry" />
        </mxCell>
        <mxCell id="VEXL8dhw8h9_8BypqZwF-5" value="Is Paid Post Page Set in General Settings?" style="rhombus;strokeWidth=2;whiteSpace=wrap;" vertex="1" parent="1">
          <mxGeometry x="511" y="484" width="278" height="278" as="geometry" />
        </mxCell>
        <mxCell id="VEXL8dhw8h9_8BypqZwF-6" value="Notice: &#39;You don&#39;t have created paid post type membership setup...&#39;" style="whiteSpace=wrap;strokeWidth=2;" vertex="1" parent="1">
          <mxGeometry x="107" y="834" width="260" height="102" as="geometry" />
        </mxCell>
        <mxCell id="VEXL8dhw8h9_8BypqZwF-7" value="Create Paid Post Page with Shortcode" style="whiteSpace=wrap;strokeWidth=2;" vertex="1" parent="1">
          <mxGeometry x="20" y="986" width="260" height="78" as="geometry" />
        </mxCell>
        <mxCell id="VEXL8dhw8h9_8BypqZwF-8" value="Display Content Type - Default &#39;Page&#39;" style="whiteSpace=wrap;strokeWidth=2;" vertex="1" parent="1">
          <mxGeometry x="675" y="846" width="260" height="78" as="geometry" />
        </mxCell>
        <mxCell id="VEXL8dhw8h9_8BypqZwF-9" value="Select Page - Search &amp; Choose Page" style="whiteSpace=wrap;strokeWidth=2;" vertex="1" parent="1">
          <mxGeometry x="989" y="986" width="260" height="78" as="geometry" />
        </mxCell>
        <mxCell id="VEXL8dhw8h9_8BypqZwF-10" value="Select Post Type - Default &#39;Buy Now&#39;" style="whiteSpace=wrap;strokeWidth=2;" vertex="1" parent="1">
          <mxGeometry x="989" y="1114" width="260" height="78" as="geometry" />
        </mxCell>
        <mxCell id="VEXL8dhw8h9_8BypqZwF-11" value="Enter Paid Post Amount" style="whiteSpace=wrap;strokeWidth=2;" vertex="1" parent="1">
          <mxGeometry x="1430" y="1678" width="227" height="54" as="geometry" />
        </mxCell>
        <mxCell id="VEXL8dhw8h9_8BypqZwF-12" value="Select Duration Type - Default &#39;Lifetime&#39;" style="whiteSpace=wrap;strokeWidth=2;" vertex="1" parent="1">
          <mxGeometry x="1413" y="2017" width="260" height="78" as="geometry" />
        </mxCell>
        <mxCell id="VEXL8dhw8h9_8BypqZwF-13" value="Is &#39;Fixed Duration&#39; Selected?" style="rhombus;strokeWidth=2;whiteSpace=wrap;" vertex="1" parent="1">
          <mxGeometry x="1417" y="2267" width="252" height="252" as="geometry" />
        </mxCell>
        <mxCell id="VEXL8dhw8h9_8BypqZwF-14" value="Show Field to Select Duration" style="whiteSpace=wrap;strokeWidth=2;" vertex="1" parent="1">
          <mxGeometry x="1560" y="2591" width="260" height="78" as="geometry" />
        </mxCell>
        <mxCell id="VEXL8dhw8h9_8BypqZwF-15" value="Skip Duration Selection" style="whiteSpace=wrap;strokeWidth=2;" vertex="1" parent="1">
          <mxGeometry x="1284" y="2603" width="226" height="54" as="geometry" />
        </mxCell>
        <mxCell id="VEXL8dhw8h9_8BypqZwF-16" value="Is &#39;Free Post&#39; Type Selected?" style="rhombus;strokeWidth=2;whiteSpace=wrap;" vertex="1" parent="1">
          <mxGeometry x="994" y="1242" width="251" height="251" as="geometry" />
        </mxCell>
        <mxCell id="VEXL8dhw8h9_8BypqZwF-17" value="Hide Plan Amount &amp; Duration" style="whiteSpace=wrap;strokeWidth=2;" vertex="1" parent="1">
          <mxGeometry x="974" y="2591" width="260" height="78" as="geometry" />
        </mxCell>
        <mxCell id="VEXL8dhw8h9_8BypqZwF-18" value="Is &#39;Subscription/Recurring&#39; Post Selected?" style="rhombus;strokeWidth=2;whiteSpace=wrap;" vertex="1" parent="1">
          <mxGeometry x="655" y="1566" width="278" height="278" as="geometry" />
        </mxCell>
        <mxCell id="VEXL8dhw8h9_8BypqZwF-19" value="Display Payment Cycles Section" style="whiteSpace=wrap;strokeWidth=2;" vertex="1" parent="1">
          <mxGeometry x="664" y="2017" width="260" height="78" as="geometry" />
        </mxCell>
        <mxCell id="VEXL8dhw8h9_8BypqZwF-20" value="Enter Cycle Label, Amount, Billing Cycles, Recurring Time" style="whiteSpace=wrap;strokeWidth=2;" vertex="1" parent="1">
          <mxGeometry x="664" y="2342" width="260" height="102" as="geometry" />
        </mxCell>
        <mxCell id="VEXL8dhw8h9_8BypqZwF-21" value="Click &#39;Add&#39; - Add Another Payment Cycle" style="whiteSpace=wrap;strokeWidth=2;" vertex="1" parent="1">
          <mxGeometry x="664" y="2591" width="260" height="78" as="geometry" />
        </mxCell>
        <mxCell id="VEXL8dhw8h9_8BypqZwF-22" value="Alternative Content Switch" style="whiteSpace=wrap;strokeWidth=2;" vertex="1" parent="1">
          <mxGeometry x="348" y="1678" width="254" height="54" as="geometry" />
        </mxCell>
        <mxCell id="VEXL8dhw8h9_8BypqZwF-23" value="Is Alternative Content Enabled?" style="rhombus;strokeWidth=2;whiteSpace=wrap;" vertex="1" parent="1">
          <mxGeometry x="336" y="1917" width="278" height="278" as="geometry" />
        </mxCell>
        <mxCell id="VEXL8dhw8h9_8BypqZwF-24" value="Show &#39;Enter Alternative Content&#39; Text Area" style="whiteSpace=wrap;strokeWidth=2;" vertex="1" parent="1">
          <mxGeometry x="345" y="2354" width="260" height="78" as="geometry" />
        </mxCell>
        <mxCell id="VEXL8dhw8h9_8BypqZwF-25" value="Allow Text &amp; Shortcodes" style="whiteSpace=wrap;strokeWidth=2;" vertex="1" parent="1">
          <mxGeometry x="358" y="2603" width="233" height="54" as="geometry" />
        </mxCell>
        <mxCell id="VEXL8dhw8h9_8BypqZwF-26" value="Save Paid Post - Restrict Selected Pages, Posts, and Other Types" style="whiteSpace=wrap;strokeWidth=2;" vertex="1" parent="1">
          <mxGeometry x="974" y="2719" width="260" height="102" as="geometry" />
        </mxCell>
        <mxCell id="VEXL8dhw8h9_8BypqZwF-27" value="" style="curved=1;startArrow=none;endArrow=block;exitX=0.5;exitY=1;entryX=0.5;entryY=0;rounded=0;" edge="1" parent="1" source="VEXL8dhw8h9_8BypqZwF-1" target="VEXL8dhw8h9_8BypqZwF-2">
          <mxGeometry relative="1" as="geometry">
            <Array as="points" />
          </mxGeometry>
        </mxCell>
        <mxCell id="VEXL8dhw8h9_8BypqZwF-28" value="" style="curved=1;startArrow=none;endArrow=block;exitX=0.5;exitY=1;entryX=0.5;entryY=0;rounded=0;" edge="1" parent="1" source="VEXL8dhw8h9_8BypqZwF-2" target="VEXL8dhw8h9_8BypqZwF-3">
          <mxGeometry relative="1" as="geometry">
            <Array as="points" />
          </mxGeometry>
        </mxCell>
        <mxCell id="VEXL8dhw8h9_8BypqZwF-29" value="" style="curved=1;startArrow=none;endArrow=block;exitX=0.5;exitY=1;entryX=0.5;entryY=0;rounded=0;" edge="1" parent="1" source="VEXL8dhw8h9_8BypqZwF-3" target="VEXL8dhw8h9_8BypqZwF-4">
          <mxGeometry relative="1" as="geometry">
            <Array as="points" />
          </mxGeometry>
        </mxCell>
        <mxCell id="VEXL8dhw8h9_8BypqZwF-30" value="" style="curved=1;startArrow=none;endArrow=block;exitX=0.73;exitY=1;entryX=0.5;entryY=0;rounded=0;" edge="1" parent="1" source="VEXL8dhw8h9_8BypqZwF-4" target="VEXL8dhw8h9_8BypqZwF-5">
          <mxGeometry relative="1" as="geometry">
            <Array as="points">
              <mxPoint x="650" y="459" />
            </Array>
          </mxGeometry>
        </mxCell>
        <mxCell id="VEXL8dhw8h9_8BypqZwF-31" value="No" style="curved=1;startArrow=none;endArrow=block;exitX=0;exitY=0.71;entryX=0.5;entryY=0;rounded=0;" edge="1" parent="1" source="VEXL8dhw8h9_8BypqZwF-5" target="VEXL8dhw8h9_8BypqZwF-6">
          <mxGeometry relative="1" as="geometry">
            <Array as="points">
              <mxPoint x="237" y="798" />
            </Array>
          </mxGeometry>
        </mxCell>
        <mxCell id="VEXL8dhw8h9_8BypqZwF-32" value="" style="curved=1;startArrow=none;endArrow=block;exitX=0.5;exitY=1;entryX=0.7;entryY=0.01;rounded=0;" edge="1" parent="1" source="VEXL8dhw8h9_8BypqZwF-6" target="VEXL8dhw8h9_8BypqZwF-7">
          <mxGeometry relative="1" as="geometry">
            <Array as="points">
              <mxPoint x="237" y="961" />
            </Array>
          </mxGeometry>
        </mxCell>
        <mxCell id="VEXL8dhw8h9_8BypqZwF-33" value="" style="curved=1;startArrow=none;endArrow=block;exitX=0.31;exitY=0.01;entryX=0;entryY=0.7;rounded=0;" edge="1" parent="1" source="VEXL8dhw8h9_8BypqZwF-7" target="VEXL8dhw8h9_8BypqZwF-4">
          <mxGeometry relative="1" as="geometry">
            <Array as="points">
              <mxPoint x="68" y="961" />
              <mxPoint x="68" y="459" />
            </Array>
          </mxGeometry>
        </mxCell>
        <mxCell id="VEXL8dhw8h9_8BypqZwF-34" value="Yes" style="curved=1;startArrow=none;endArrow=block;exitX=0.94;exitY=1;entryX=0.5;entryY=0.01;rounded=0;" edge="1" parent="1" source="VEXL8dhw8h9_8BypqZwF-5" target="VEXL8dhw8h9_8BypqZwF-8">
          <mxGeometry relative="1" as="geometry">
            <Array as="points">
              <mxPoint x="805" y="798" />
            </Array>
          </mxGeometry>
        </mxCell>
        <mxCell id="VEXL8dhw8h9_8BypqZwF-35" value="" style="curved=1;startArrow=none;endArrow=block;exitX=1;exitY=0.91;entryX=0.5;entryY=0.01;rounded=0;" edge="1" parent="1" source="VEXL8dhw8h9_8BypqZwF-8" target="VEXL8dhw8h9_8BypqZwF-9">
          <mxGeometry relative="1" as="geometry">
            <Array as="points">
              <mxPoint x="1119" y="961" />
            </Array>
          </mxGeometry>
        </mxCell>
        <mxCell id="VEXL8dhw8h9_8BypqZwF-36" value="" style="curved=1;startArrow=none;endArrow=block;exitX=0.5;exitY=1.01;entryX=0.5;entryY=0.01;rounded=0;" edge="1" parent="1" source="VEXL8dhw8h9_8BypqZwF-9" target="VEXL8dhw8h9_8BypqZwF-10">
          <mxGeometry relative="1" as="geometry">
            <Array as="points" />
          </mxGeometry>
        </mxCell>
        <mxCell id="VEXL8dhw8h9_8BypqZwF-37" value="" style="curved=1;startArrow=none;endArrow=block;exitX=1;exitY=0.75;entryX=0.51;entryY=0;rounded=0;" edge="1" parent="1" source="VEXL8dhw8h9_8BypqZwF-10" target="VEXL8dhw8h9_8BypqZwF-11">
          <mxGeometry relative="1" as="geometry">
            <Array as="points">
              <mxPoint x="1559" y="1217" />
              <mxPoint x="1559" y="1530" />
            </Array>
          </mxGeometry>
        </mxCell>
        <mxCell id="VEXL8dhw8h9_8BypqZwF-38" value="" style="curved=1;startArrow=none;endArrow=block;exitX=0.5;exitY=1;entryX=0.5;entryY=-0.01;rounded=0;" edge="1" parent="1" source="VEXL8dhw8h9_8BypqZwF-11" target="VEXL8dhw8h9_8BypqZwF-12">
          <mxGeometry relative="1" as="geometry">
            <Array as="points" />
          </mxGeometry>
        </mxCell>
        <mxCell id="VEXL8dhw8h9_8BypqZwF-39" value="" style="curved=1;startArrow=none;endArrow=block;exitX=0.5;exitY=0.99;entryX=0.5;entryY=0;rounded=0;" edge="1" parent="1" source="VEXL8dhw8h9_8BypqZwF-12" target="VEXL8dhw8h9_8BypqZwF-13">
          <mxGeometry relative="1" as="geometry">
            <Array as="points" />
          </mxGeometry>
        </mxCell>
        <mxCell id="VEXL8dhw8h9_8BypqZwF-40" value="Yes" style="curved=1;startArrow=none;endArrow=block;exitX=0.95;exitY=1;entryX=0.5;entryY=0.01;rounded=0;" edge="1" parent="1" source="VEXL8dhw8h9_8BypqZwF-13" target="VEXL8dhw8h9_8BypqZwF-14">
          <mxGeometry relative="1" as="geometry">
            <Array as="points">
              <mxPoint x="1690" y="2555" />
            </Array>
          </mxGeometry>
        </mxCell>
        <mxCell id="VEXL8dhw8h9_8BypqZwF-41" value="No" style="curved=1;startArrow=none;endArrow=block;exitX=0.05;exitY=1;entryX=0.5;entryY=0.01;rounded=0;" edge="1" parent="1" source="VEXL8dhw8h9_8BypqZwF-13" target="VEXL8dhw8h9_8BypqZwF-15">
          <mxGeometry relative="1" as="geometry">
            <Array as="points">
              <mxPoint x="1397" y="2555" />
            </Array>
          </mxGeometry>
        </mxCell>
        <mxCell id="VEXL8dhw8h9_8BypqZwF-42" value="" style="curved=1;startArrow=none;endArrow=block;exitX=0.5;exitY=1.01;entryX=0.5;entryY=0;rounded=0;" edge="1" parent="1" source="VEXL8dhw8h9_8BypqZwF-10" target="VEXL8dhw8h9_8BypqZwF-16">
          <mxGeometry relative="1" as="geometry">
            <Array as="points" />
          </mxGeometry>
        </mxCell>
        <mxCell id="VEXL8dhw8h9_8BypqZwF-43" value="Yes" style="curved=1;startArrow=none;endArrow=block;exitX=0.45;exitY=1;entryX=0.5;entryY=0.01;rounded=0;" edge="1" parent="1" source="VEXL8dhw8h9_8BypqZwF-16" target="VEXL8dhw8h9_8BypqZwF-17">
          <mxGeometry relative="1" as="geometry">
            <Array as="points">
              <mxPoint x="1104" y="1530" />
            </Array>
          </mxGeometry>
        </mxCell>
        <mxCell id="VEXL8dhw8h9_8BypqZwF-44" value="No" style="curved=1;startArrow=none;endArrow=block;exitX=0.95;exitY=1;entryX=0.31;entryY=0;rounded=0;" edge="1" parent="1" source="VEXL8dhw8h9_8BypqZwF-16" target="VEXL8dhw8h9_8BypqZwF-11">
          <mxGeometry relative="1" as="geometry">
            <Array as="points">
              <mxPoint x="1266" y="1530" />
            </Array>
          </mxGeometry>
        </mxCell>
        <mxCell id="VEXL8dhw8h9_8BypqZwF-45" value="" style="curved=1;startArrow=none;endArrow=block;exitX=0;exitY=0.83;entryX=0.5;entryY=0;rounded=0;" edge="1" parent="1" source="VEXL8dhw8h9_8BypqZwF-10" target="VEXL8dhw8h9_8BypqZwF-18">
          <mxGeometry relative="1" as="geometry">
            <Array as="points">
              <mxPoint x="794" y="1217" />
            </Array>
          </mxGeometry>
        </mxCell>
        <mxCell id="VEXL8dhw8h9_8BypqZwF-46" value="Yes" style="curved=1;startArrow=none;endArrow=block;exitX=0.5;exitY=1;entryX=0.5;entryY=-0.01;rounded=0;" edge="1" parent="1" source="VEXL8dhw8h9_8BypqZwF-18" target="VEXL8dhw8h9_8BypqZwF-19">
          <mxGeometry relative="1" as="geometry">
            <Array as="points" />
          </mxGeometry>
        </mxCell>
        <mxCell id="VEXL8dhw8h9_8BypqZwF-47" value="" style="curved=1;startArrow=none;endArrow=block;exitX=0.5;exitY=0.99;entryX=0.5;entryY=0;rounded=0;" edge="1" parent="1" source="VEXL8dhw8h9_8BypqZwF-19" target="VEXL8dhw8h9_8BypqZwF-20">
          <mxGeometry relative="1" as="geometry">
            <Array as="points" />
          </mxGeometry>
        </mxCell>
        <mxCell id="VEXL8dhw8h9_8BypqZwF-48" value="" style="curved=1;startArrow=none;endArrow=block;exitX=0.5;exitY=1;entryX=0.5;entryY=0.01;rounded=0;" edge="1" parent="1" source="VEXL8dhw8h9_8BypqZwF-20" target="VEXL8dhw8h9_8BypqZwF-21">
          <mxGeometry relative="1" as="geometry">
            <Array as="points" />
          </mxGeometry>
        </mxCell>
        <mxCell id="VEXL8dhw8h9_8BypqZwF-49" value="" style="curved=1;startArrow=none;endArrow=block;exitX=0;exitY=0.89;entryX=0.5;entryY=0;rounded=0;" edge="1" parent="1" source="VEXL8dhw8h9_8BypqZwF-8" target="VEXL8dhw8h9_8BypqZwF-22">
          <mxGeometry relative="1" as="geometry">
            <Array as="points">
              <mxPoint x="475" y="961" />
            </Array>
          </mxGeometry>
        </mxCell>
        <mxCell id="VEXL8dhw8h9_8BypqZwF-50" value="" style="curved=1;startArrow=none;endArrow=block;exitX=0.5;exitY=1;entryX=0.5;entryY=0;rounded=0;" edge="1" parent="1" source="VEXL8dhw8h9_8BypqZwF-22" target="VEXL8dhw8h9_8BypqZwF-23">
          <mxGeometry relative="1" as="geometry">
            <Array as="points" />
          </mxGeometry>
        </mxCell>
        <mxCell id="VEXL8dhw8h9_8BypqZwF-51" value="Yes" style="curved=1;startArrow=none;endArrow=block;exitX=0.5;exitY=1;entryX=0.5;entryY=0;rounded=0;" edge="1" parent="1" source="VEXL8dhw8h9_8BypqZwF-23" target="VEXL8dhw8h9_8BypqZwF-24">
          <mxGeometry relative="1" as="geometry">
            <Array as="points" />
          </mxGeometry>
        </mxCell>
        <mxCell id="VEXL8dhw8h9_8BypqZwF-52" value="" style="curved=1;startArrow=none;endArrow=block;exitX=0.5;exitY=1;entryX=0.5;entryY=0.01;rounded=0;" edge="1" parent="1" source="VEXL8dhw8h9_8BypqZwF-24" target="VEXL8dhw8h9_8BypqZwF-25">
          <mxGeometry relative="1" as="geometry">
            <Array as="points" />
          </mxGeometry>
        </mxCell>
        <mxCell id="VEXL8dhw8h9_8BypqZwF-53" value="" style="curved=1;startArrow=none;endArrow=block;exitX=0.5;exitY=1.01;entryX=1;entryY=0.34;rounded=0;" edge="1" parent="1" source="VEXL8dhw8h9_8BypqZwF-14" target="VEXL8dhw8h9_8BypqZwF-26">
          <mxGeometry relative="1" as="geometry">
            <Array as="points">
              <mxPoint x="1690" y="2694" />
            </Array>
          </mxGeometry>
        </mxCell>
        <mxCell id="VEXL8dhw8h9_8BypqZwF-54" value="" style="curved=1;startArrow=none;endArrow=block;exitX=0.5;exitY=1.01;entryX=1;entryY=0.17;rounded=0;" edge="1" parent="1" source="VEXL8dhw8h9_8BypqZwF-15" target="VEXL8dhw8h9_8BypqZwF-26">
          <mxGeometry relative="1" as="geometry">
            <Array as="points">
              <mxPoint x="1397" y="2694" />
            </Array>
          </mxGeometry>
        </mxCell>
        <mxCell id="VEXL8dhw8h9_8BypqZwF-55" value="" style="curved=1;startArrow=none;endArrow=block;exitX=0.5;exitY=1.01;entryX=0.5;entryY=0;rounded=0;" edge="1" parent="1" source="VEXL8dhw8h9_8BypqZwF-17" target="VEXL8dhw8h9_8BypqZwF-26">
          <mxGeometry relative="1" as="geometry">
            <Array as="points" />
          </mxGeometry>
        </mxCell>
        <mxCell id="VEXL8dhw8h9_8BypqZwF-56" value="" style="curved=1;startArrow=none;endArrow=block;exitX=0.5;exitY=1.01;entryX=0;entryY=0.19;rounded=0;" edge="1" parent="1" source="VEXL8dhw8h9_8BypqZwF-21" target="VEXL8dhw8h9_8BypqZwF-26">
          <mxGeometry relative="1" as="geometry">
            <Array as="points">
              <mxPoint x="794" y="2694" />
            </Array>
          </mxGeometry>
        </mxCell>
        <mxCell id="VEXL8dhw8h9_8BypqZwF-57" value="" style="curved=1;startArrow=none;endArrow=block;exitX=0.5;exitY=1.01;entryX=0;entryY=0.35;rounded=0;" edge="1" parent="1" source="VEXL8dhw8h9_8BypqZwF-25" target="VEXL8dhw8h9_8BypqZwF-26">
          <mxGeometry relative="1" as="geometry">
            <Array as="points">
              <mxPoint x="475" y="2694" />
            </Array>
          </mxGeometry>
        </mxCell>
      </root>
    </mxGraphModel>
  </diagram>
</mxfile>
